<?xml version="1.0" standalone="no"?><!DOCTYPE svg PUBLIC "-//W3C//DTD SVG 1.1//EN" "http://www.w3.org/Graphics/SVG/1.1/DTD/svg11.dtd"><svg t="1540489994991" class="icon" style="" viewBox="0 0 1024 1024" version="1.1" xmlns="http://www.w3.org/2000/svg" p-id="5005" xmlns:xlink="http://www.w3.org/1999/xlink" width="200" height="200"><defs><style type="text/css"></style></defs><path d="M910.222 853.333V455.111h56.89v455.111H113.777v-455.11h56.889v398.221h739.555z m56.89 0l-56.89 56.89v-56.89h56.89z m-796.445 56.89l-56.89-56.89h56.89v56.89zM910.222 455.11h56.89v455.111H113.777v-455.11h56.889v398.221h739.555V455.111zM170.667 910.222l-56.89-56.889h56.89v56.89z m796.444-56.889l-56.889 56.89v-56.89h56.89z" fill="#67afe9" p-id="5006"></path><path d="M512 113.778h56.889v625.778H512z" fill="#67afe9" p-id="5007"></path><path d="M545.166 56.15l249.401 249.4-40.22 40.22-249.401-249.4z" fill="#67afe9" p-id="5008"></path><path d="M294.514 307.996l249.344-249.4 40.22 40.22-249.4 249.4z" fill="#67afe9" p-id="5009"></path></svg>