<?xml version="1.0" encoding="utf-8"?>
<!-- Generator: Adobe Illustrator 17.0.0, SVG Export Plug-In . SVG Version: 6.00 Build 0)  -->
<!DOCTYPE svg PUBLIC "-//W3C//DTD SVG 1.1//EN" "http://www.w3.org/Graphics/SVG/1.1/DTD/svg11.dtd">
<svg version="1.1" id="Layer_1" xmlns="http://www.w3.org/2000/svg" xmlns:xlink="http://www.w3.org/1999/xlink" x="0px" y="0px"
	 width="150px" height="150px" viewBox="0 0 150 150" enable-background="new 0 0 150 150" xml:space="preserve">
<g>
	<path fill="#67AFE9" d="M28.918,126.677l3.749-23.245c-6.365-8.558-9.722-18.555-9.722-28.996
		c0-27.346,23.095-49.594,51.482-49.594c14.175,0,27.371,5.417,37.16,15.251c9.219,9.262,14.262,21.415,14.201,34.22
		c0,27.332-23.094,49.58-51.48,49.58c-8.426,0-16.811-2.054-24.344-5.952L28.918,126.677z M50.313,111.301l1.266,0.7
		c6.973,3.854,14.833,5.893,22.73,5.893c25.078,0,45.48-19.557,45.48-43.594c0.053-11.211-4.37-21.851-12.454-29.973
		c-8.654-8.696-20.341-13.484-32.907-13.484c-25.079,0-45.482,19.556-45.482,43.594c0,9.518,3.199,18.629,9.25,26.35l0.81,1.032
		l-2.45,15.192L50.313,111.301z"/>
</g>
<g>
	<path fill="#67AFE9" d="M70.413,92.093c0-2.412,1.675-4.153,3.953-4.153c2.412,0,3.952,1.741,3.952,4.153
		c0,2.345-1.54,4.153-3.952,4.153C72.021,96.246,70.413,94.438,70.413,92.093z M72.088,82.514L71.15,50.36h6.431l-0.938,32.153
		H72.088z"/>
</g>
</svg>
