<svg width="150" height="150" xmlns="http://www.w3.org/2000/svg">

 <g>
  <title>background</title>
  <rect fill="none" id="canvas_background" height="402" width="582" y="-1" x="-1"/>
 </g>
 <g>
  <title>Layer 1</title>
  <g stroke="null" id="svg_1">
   <path stroke="null" id="svg_2" d="m18.990191,140.623319l4.678301,-29.006965c-7.942755,-10.679355 -12.131887,-23.154409 -12.131887,-36.183522c0,-34.12452 28.819783,-61.887349 64.243346,-61.887349c17.688696,0 34.155717,6.759765 46.371212,19.031414c11.504204,11.557862 17.797261,26.723345 17.721141,42.702446c0,34.10705 -28.818535,61.869879 -64.24085,61.869879c-10.514635,0 -20.978107,-2.563145 -30.378385,-7.42738l-26.262878,10.901478zm26.698388,-19.187399l1.579816,0.873516c8.701466,4.809329 18.509801,7.353755 28.364307,7.353755c31.294329,0 56.753572,-24.404785 56.753572,-54.400071c0.066138,-13.98998 -5.453235,-27.267421 -15.541095,-37.4027c-10.799152,-10.851562 -25.383122,-16.826411 -41.063979,-16.826411c-31.295577,0 -56.756068,24.403537 -56.756068,54.400071c0,11.87732 3.991967,23.246752 11.542888,32.881632l1.010783,1.287812l-3.057305,18.957789l17.167082,-7.125393z" fill="#67AFE9"/>
  </g>
  <g stroke="null" id="svg_3">
   <path stroke="null" id="svg_4" d="m68.15949,105.82213c0,-3.787197 2.629998,-6.520824 6.206795,-6.520824c3.787197,0 6.205225,2.733628 6.205225,6.520824c0,3.681997 -2.418028,6.520824 -6.205225,6.520824c-3.681997,0 -6.206795,-2.838827 -6.206795,-6.520824zm2.629998,-15.040447l-1.472799,-50.486536l10.097621,0l-1.472799,50.484966l-7.152024,0l0,0.00157z" fill="#67AFE9"/>
  </g>
 </g>
</svg>